<svg xmlns="http://www.w3.org/2000/svg" viewBox="0 0 32 32">
  <defs>
    <linearGradient id="gold" x1="0%" y1="0%" x2="100%" y2="100%">
      <stop offset="0%" style="stop-color:#d4af37"/>
      <stop offset="100%" style="stop-color:#b8962e"/>
    </linearGradient>
  </defs>
  <!-- Background -->
  <rect width="32" height="32" rx="6" fill="#0a0a0f"/>
  <!-- Beer mug icon -->
  <g transform="translate(6, 5)">
    <!-- Mug body -->
    <path d="M3 4h12v14c0 1.5-1 3-3 3H6c-2 0-3-1.5-3-3V4z" fill="url(#gold)"/>
    <!-- Foam -->
    <ellipse cx="9" cy="4" rx="6" ry="2" fill="#fff" opacity="0.9"/>
    <ellipse cx="7" cy="3" rx="2" ry="1.5" fill="#fff"/>
    <ellipse cx="11" cy="2.5" rx="1.5" ry="1" fill="#fff"/>
    <!-- Handle -->
    <path d="M15 6h2c1.5 0 3 1 3 3v4c0 2-1.5 3-3 3h-2" fill="none" stroke="url(#gold)" stroke-width="2" stroke-linecap="round"/>
    <!-- Bubbles -->
    <circle cx="6" cy="10" r="1" fill="#fff" opacity="0.5"/>
    <circle cx="10" cy="12" r="0.8" fill="#fff" opacity="0.4"/>
    <circle cx="8" cy="15" r="0.6" fill="#fff" opacity="0.3"/>
  </g>
</svg>
